# xmcd
#
# Track frame offsets:
#	150
#	15568
#	33295
#	50330
#	69804
#	85989
#	101530
#	119756
#	135973
#	152639
#	168717
#	197659
#	216045
#	234279
#
# Disc length: 3331 seconds
#
# Revision: 1
# Processed by: cddbd v1.5PL3 Copyright (c) Steve Scherf et al.
# Submitted via: CDmax 1.9
#
DISCID=af0d010e
DTITLE=SHeDAISY - Sweet Right Here and bonus tracks (Target edition)
DYEAR=2004
DGENRE=Country
TTITLE0=Passenger Seat
TTITLE1=5 4 3 2 Run
TTITLE2=360 Degrees of You
TTITLE3=Love Goes On
TTITLE4=I Dare You
TTITLE5=Good Together (Bucket and Chicken)
TTITLE6=Come Home Soon
TTITLE7=Don't Worry 'bout a Thing
TTITLE8=Without a Sound
TTITLE9=Borrowed Home
TTITLE10=A Woman's Work
TTITLE11=He's a Hero
TTITLE12=Whose Life Am I In (bonus track)
TTITLE13=Shame (bonus track)
EXTD=Special edition with two bonus tracks, only available from Target stores
EXTT0=
EXTT1=
EXTT2=
EXTT3=
EXTT4=
EXTT5=
EXTT6=
EXTT7=
EXTT8=
EXTT9=
EXTT10=
EXTT11=
EXTT12=
EXTT13=
PLAYORDER=
